PathFileType	4	(X/Y/Z)	C:/Users/beibeiliu/ov580/test_trc/User3\sequence.51_training_dense_right.trc
DataRate	CameraRate	NumFrames	NumMarkers	Units	OrigDataRate	OrigDataStartFrame	OrigNumFrames
120	120	20	19	mm	120	1	100
Frame#	Time	ThumbCMC			ThumbMCP			ThumbIP			ThumbTip			IndexMCP			IndexPIP			IndexTip			MiddleMCP			MiddlePIP			MiddleTip			RingMCP			RingPIP			RingTip			PinkyMCP			PinkyPIP			PinkyTip			BackHand1			BackHand2			BackHand3	
		X0	Y0	Z0	X1	Y1	Z1	X2	Y2	Z2	X3	Y3	Z3	X4	Y4	Z4	X5	Y5	Z5	X6	Y6	Z6	X7	Y7	Z7	X8	Y8	Z8	X9	Y9	Z9	X10	Y10	Z10	X11	Y11	Z11	X12	Y12	Z12	X13	Y13	Z13	X14	Y14	Z14	X15	Y15	Z15	X16	Y16	Z16	X17	Y17	Z17	X18	Y18	Z18	
0	0	193.648	19.4813	54.5334	203.505	24.0597	24.5963	205.901	24.0159	-5.41118	206.13	25.4995	-26.9572	150.667	4.26468	-11.5445	128.095	30.6729	-6.19012	136.582	41.5149	21.1455	132.095	-8.36686	-4.0083	114.919	21.2852	-0.754282	126.065	31.4316	36.676	121.906	-14.1485	9.80574	107.151	12.0545	17.9338	126.538	19.0778	46.0891	114.507	-25.446	24.2054	99.5883	-1.16455	24.1987	113.103	14.1738	45.5774	161.609	-35.2376	47.1549	175.664	-30.5261	76.71	190.216	-11.7809	49.8891	
1	0.00833333	196.365	14.6533	51.471	202.04	20.6604	29.2173	206.046	22.5763	-3.66266	209.536	29.5925	-23.2706	158.323	-4.24104	-13.6236	136.786	18.6889	-30.1203	129.041	39.8283	-5.43045	141.616	-16.1693	-10.0892	117.745	9.69133	-22.9884	112.689	35.0625	5.70983	125.615	-20.6665	1.87157	102.29	-4.13846	-1.02122	108.193	25.3808	19.3294	115.123	-26.9808	24.7987	95.2643	-6.97294	15.6002	104.592	18.7035	27.1282	159.1	-35.0012	48.364	171.533	-33.0269	77.2992	189.584	-16.8315	48.2594	
2	0.0166667	200.632	12.245	56.8603	203.995	16.7432	28.186	210.859	21.5343	-1.82271	210.756	26.0997	-22.2282	164.13	-8.80555	-14.5174	152.199	5.10365	-40.4793	131.434	29.8769	-39.2539	142.663	-20.2186	-15.7263	124.495	-3.01425	-36.2539	104.294	29.4782	-29.8164	125.869	-25.2775	2.48673	107.598	-12.1244	-13.4205	94.1743	18.9573	-9.20184	112.636	-27.1123	23.2899	92.4306	-13.2119	13.489	88.171	13.0148	11.2967	155.376	-36.0318	47.2683	165.188	-37.8634	75.3895	187.472	-21.6607	50.6643	
3	0.025	201.556	10.4351	53.7078	208.401	17.4258	30.221	212.499	20.9044	-2.32126	216.907	28.2554	-22.1807	169.717	-8.14371	-14.3487	157.497	2.20699	-45.3871	138.784	18.6968	-57.594	142.285	-22.6553	-13.6983	125.894	-10.5115	-40.3793	105.858	12.8762	-53.1422	127.479	-24.8402	-1.50653	107.093	-15.4594	-19.8801	91.611	7.69827	-29.4972	112.167	-24.7767	23.4202	92.9769	-16.2677	12.8088	76.7591	7.74006	2.29001	157.103	-35.2533	44.5555	164.328	-35.1725	76.3294	188.032	-20.0577	45.5275	
4	0.0333333	203.578	9.34339	51.6487	209.178	16.7262	29.4543	216.709	22.0043	-0.543745	221.772	29.1494	-21.2554	169.798	-7.64491	-18.6159	166.27	-0.658802	-44.5148	150.237	9.81346	-65.2142	148.902	-18.8228	-14.1071	132.291	-10.9903	-43.6479	116.984	1.8801	-65.6014	130.191	-20.5925	0.969541	112.297	-14.7285	-24.1803	93.4112	-1.81777	-41.5594	111.857	-20.5827	24.8496	90.263	-13.5255	8.62602	72.7696	0.958677	-1.89455	156.094	-32.5295	45.9836	161.025	-37.0331	75.0041	184.319	-21.8794	49.591	
5	0.0416667	205.658	7.81356	50.9312	211.472	15.1605	29.6959	220.728	22.2984	4.72731	228.262	28.8014	-15.848	177.092	-5.16018	-18.2819	168.931	-2.38188	-45.4173	165.845	7.69395	-71.7064	150.114	-18.4081	-14.6551	138.101	-13.8375	-41.4998	127.603	-3.83768	-68.4418	132.309	-18.5167	-4.13634	115.961	-16.8224	-21.8777	103.274	-6.99836	-43.1141	110.785	-18.1707	21.4516	96.7029	-13.3905	9.07285	72.1845	-4.97782	-4.38799	152.029	-32.289	43.456	162.066	-34.5767	70.2949	184.668	-22.3768	45.0395	
6	0.05	208.692	7.91422	53.4141	221.929	16.1495	32.2405	232.732	23.8131	3.85207	239.4	32.5014	-12.8731	184.078	-5.75656	-18.0408	183.78	-1.05028	-46.6843	173.809	2.82128	-69.8915	160.732	-18.475	-17.6306	150.212	-14.463	-43.8457	138.27	-7.48514	-72.5499	136.563	-21.6316	-4.18971	123.707	-19.5105	-23.7168	110.248	-13.8203	-45.1818	121.161	-19.2272	19.7813	99.3484	-16.3499	7.34414	79.5974	-12.5219	-8.19263	162.235	-32.4421	43.8007	169.474	-34.0871	70.9907	192.108	-20.9309	45.2331	
7	0.0583333	210.62	17.6235	59.6875	221.031	27.7276	34.9631	230.081	38.0205	8.50195	236.194	47.5904	-11.4823	192.427	1.32448	-17.6133	187.31	5.12471	-46.8988	182.476	11.0408	-72.1464	167.425	-16.3164	-19.3103	159.778	-12.8022	-46.4132	145.624	-8.58533	-77.3831	145.107	-23.2782	-6.38451	133.274	-23.9687	-27.2185	124.636	-19.5316	-49.7143	130.331	-25.2318	18.2418	113.862	-25.9077	3.93569	92.8211	-29.8827	-11.7224	170.641	-31.5661	38.4962	177.284	-33.3571	72.1695	201.021	-13.9025	48.3686	
8	0.0666667	195.503	34.2755	58.9219	202.899	52.1247	40.3752	206.383	65.2406	16.3004	209.225	79.3805	-1.95558	188.531	19.6796	-16.5978	186.832	25.8294	-43.0814	179.924	28.9781	-65.0291	175.58	-5.28698	-18.601	166.871	-2.13837	-49.1063	158.264	2.02563	-73.3402	161.333	-18.6402	-5.86863	151.289	-21.7309	-28.8805	138.125	-23.3421	-56.2329	143.381	-32.5532	13.1522	130.3	-36.6969	-4.87425	114.321	-46.5218	-17.3502	179.827	-26.0398	39.4252	184.686	-26.8823	68.4541	199.673	2.29917	51.3909	
9	0.075	174.875	51.4779	68.0872	171.628	70.3729	45.8446	170.569	86.9887	24.0178	168.322	102.206	6.15214	177.351	39.1389	-13.648	172.766	49.8641	-35.5682	164.598	51.8136	-63.4892	178.635	17.2245	-20.8287	170.489	16.9472	-48.8747	162.197	20.1369	-74.5832	171.4	-6.837	-7.87675	165.805	-9.32432	-32.1045	156.837	-12.8042	-58.9753	161.495	-30.1023	8.79579	154.78	-36.6778	-10.9244	148.653	-45.9952	-30.51	186.739	-3.87797	40.8878	191.276	-10.4743	66.34	194.462	21.7547	54.3411	
10	0.0833333	150.944	52.1373	68.4734	140.118	74.5059	49.7331	130.164	91.4202	29.4175	122.705	102.741	12.5544	160.105	55.3475	-5.94297	151.65	64.4314	-34.8399	148.294	63.2878	-57.1993	173.098	33.1516	-18.0424	169.395	33.3163	-43.6691	159.988	35.3115	-73.6847	178.412	8.7248	-11.8736	176.758	7.11488	-33.8049	171.922	3.95035	-60.7127	179.367	-16.944	5.84568	179.561	-21.7714	-14.9124	181.87	-31.494	-38.9936	187.753	13.586	43.319	194.328	8.90736	70.8095	178.809	38.3824	58.1337	
11	0.0916667	131.984	45.1801	73.4234	118.244	58.6933	51.9812	101.172	76.4853	28.1586	87.7991	87.1472	14.1699	141.191	59.1716	-6.25803	134.517	64.4943	-32.257	127.812	67.3098	-56.9127	162.728	45.0306	-13.1845	160.463	46.2892	-43.5469	152.1	49.5053	-72.5268	179.453	23.8691	-10.4594	180.841	22.1927	-32.9285	178.488	22.0743	-62.3461	188.559	3.58864	1.97494	196.904	-2.95323	-17.4424	204.876	-8.81908	-36.8332	185.521	25.8818	38.8755	189.575	22.5421	70.0137	162.286	47.8923	56.0882	
12	0.1	120.155	33.3129	70.7048	103.26	39.7019	49.5913	83.7931	46.8422	30.1197	68.3192	52.6427	15.2947	127.385	53.5496	-8.75585	120.772	55.3727	-32.3942	112.031	58.4729	-51.9624	153.68	49.5594	-17.5645	153.82	49.3793	-45.6411	147.704	51.8206	-72.5982	177.131	35.6511	-10.5233	183.221	36.5884	-34.8329	180.79	40.0826	-60.387	196.42	18.1493	4.77918	203.996	18.6282	-14.0085	215.005	19.308	-34.1407	179.542	37.7304	41.2178	183.832	31.9039	69.7256	151.464	47.787	59.7645	
13	0.108333	121.247	20.0921	64.4394	98.3426	20.6554	46.0364	80.2633	22.7816	24.922	63.0901	21.6653	13.2116	127.124	40.4391	-9.28402	117.7	42.6314	-34.2415	108.073	46.0137	-59.0899	155.679	44.3862	-14.646	151.629	46.7872	-41.9176	146.986	50.7425	-75.1183	179.392	37.9411	-10.7363	177.655	41.9454	-31.4451	183.997	45.3757	-55.1617	199.027	23.7802	9.954	209.671	28.6485	-12.2062	217.303	33.3773	-28.1571	175.275	37.9344	44.0022	180.26	35.7661	68.8125	144.499	42.4325	58.3427	
14	0.116667	118.997	16.2705	63.2596	95.7762	14.014	47.0229	79.1501	13.8016	23.6532	60.4854	13.258	6.99701	124.582	37.413	-13.1863	118.316	37.1879	-37.9042	109.055	39.5233	-57.7415	152.115	41.4682	-16.4569	153.895	43.8885	-41.5516	148.499	48.1415	-74.1268	181.16	35.7563	-8.53345	183.26	41.8072	-33.6564	185.947	45.6048	-59.139	198.812	23.002	10.189	212.773	27.7681	-6.2086	223.237	33.965	-29.151	178.271	36.2074	42.4001	177.452	35.86	71.0368	144.489	38.3508	53.3639	
15	0.125	117.817	23.9501	62.5696	98.718	21.7196	44.128	79.29	23.2366	22.9513	64.7744	22.537	7.60089	128.639	40.1383	-12.9464	120.271	40.1458	-38.4965	113.779	43.2175	-59.3767	157.776	39.9968	-19.0537	154.415	42.5409	-46.079	152.471	45.4272	-73.3161	179.363	31.5687	-9.69914	189.246	33.2749	-29.3739	192.44	35.4926	-58.244	200.032	14.5242	9.54074	212.389	14.4494	-8.28448	223.193	16.3102	-29.598	182.601	33.2589	43.3255	184.294	33.2638	68.7389	148.627	40.1607	56.25	
16	0.133333	127.664	36.6206	62.04	105.533	43.5435	41.5308	90.8511	47.911	16.0391	74.3469	52.2816	1.93734	141.249	45.5422	-15.7052	132.722	47.6736	-39.0387	131.483	48.1149	-64.9724	167.251	35.1056	-16.9434	165.356	34.9792	-44.9631	167.258	32.374	-74.7703	182.985	17.1718	-6.35319	190.018	15.2364	-34.212	193.444	13.3672	-60.9903	195.931	-4.79308	11.5448	205.188	-11.3126	-12.4078	214.811	-17.1027	-32.2412	187.136	24.2642	42.9769	190.277	24.1364	71.531	160.818	42.1739	55.5512	
17	0.141667	141.339	50.9229	57.5386	125.179	58.1874	34.4089	109.902	70.2499	15.1176	98.7993	77.1064	-0.28258	158.323	42.3848	-19.6323	151.651	44.9743	-43.4548	147.392	45.6093	-65.9971	177.645	21.4167	-22.0772	175.531	19.8025	-50.4435	171.827	19.4476	-79.1344	184.03	3.53349	-10.8742	188.671	-6.7343	-36.5069	187.146	-9.1904	-59.5324	187.336	-21.0451	7.25786	191.108	-35.2159	-10.8476	197.916	-48.364	-25.5283	192.557	10.925	41.2025	194.661	13.2855	71.8623	173.233	42.2891	51.9168	
18	0.15	163.472	58.0169	56.5946	152.521	68.1428	29.1413	142.533	82.7086	8.47508	135.376	93.5573	-9.42152	173.58	37.2785	-20.3621	169.044	37.6364	-44.539	165.557	35.3614	-72.4144	183.363	9.61856	-24.7499	179.883	2.83234	-46.9846	175.469	-3.68604	-79.7698	181.883	-15.5211	-6.24305	181.369	-22.3366	-30.5579	176.814	-30.8085	-58.0787	174.279	-32.7619	12.9688	170.823	-49.3002	-7.22171	168.634	-64.1574	-18.2969	193.247	0.896456	38.2314	194.508	3.57314	68.4053	190.556	31.6819	47.8466	
19	0.158333	186.402	51.2793	49.9979	179.909	61.2219	24.2919	176.297	76.0075	3.49844	173.966	90.2562	-15.8412	186.322	23.7094	-19.9323	183.048	25.7917	-47.6029	179.261	27.1405	-71.2648	183.942	-9.50428	-23.2745	178.609	-11.8481	-49.2994	171.825	-15.9715	-80.403	174.184	-26.7466	-9.66236	169.999	-32.6384	-31.755	160.051	-42.5042	-57.5337	160.3	-36.679	14.8923	149.777	-51.9419	-0.0658993	142.151	-65.9909	-18.8137	192.517	-12.9305	36.548	196.121	-11.6395	66.1988	201.715	17.2128	48.1382	
